<svg width="24" height="24" viewBox="0 0 24 24" fill="none" xmlns="http://www.w3.org/2000/svg">
<g clip-path="url(#clip0_8_162)">
<path d="M9 22C9.55228 22 10 21.5523 10 21C10 20.4477 9.55228 20 9 20C8.44772 20 8 20.4477 8 21C8 21.5523 8.44772 22 9 22Z" stroke="#414040" stroke-width="2" stroke-linecap="round" stroke-linejoin="round"/>
<path d="M20 22C20.5523 22 21 21.5523 21 21C21 20.4477 20.5523 20 20 20C19.4477 20 19 20.4477 19 21C19 21.5523 19.4477 22 20 22Z" stroke="#414040" stroke-width="2" stroke-linecap="round" stroke-linejoin="round"/>
<path d="M1 0H5L7.68 13.39C7.77144 13.8504 8.02191 14.264 8.38755 14.5583C8.75318 14.8526 9.2107 15.009 9.68 15H19.4C19.8693 15.009 20.3268 14.8526 20.6925 14.5583C21.0581 14.264 21.3086 13.8504 21.4 13.39L23 5H6" stroke="#414040" stroke-width="2" stroke-linecap="round" stroke-linejoin="round"/>
</g>
<defs>
<clipPath id="clip0_8_162">
<rect width="24" height="24" fill="white"/>
</clipPath>
</defs>
</svg>
