<svg width="24" height="24" viewBox="0 0 24 24" fill="none" xmlns="http://www.w3.org/2000/svg">
<path d="M20.5385 2.07666H3.46153C1.55283 2.07666 0 3.62949 0 5.53819V18.4613C0 20.37 1.55283 21.9228 3.46153 21.9228H20.5385C22.4472 21.9228 24 20.37 24 18.4613V5.53819C24 3.62949 22.4472 2.07666 20.5385 2.07666ZM22.6154 14.0767H17.5385C16.3933 14.0767 15.4615 13.145 15.4615 11.9997C15.4615 10.8545 16.3932 9.92278 17.5385 9.92278H22.6154V14.0767ZM22.6154 8.53819H17.5385C15.6298 8.53819 14.0769 10.091 14.0769 11.9997C14.0769 13.9084 15.6298 15.4613 17.5385 15.4613H22.6154V18.4613C22.6154 19.6065 21.6837 20.5382 20.5385 20.5382H3.46153C2.31633 20.5382 1.38459 19.6065 1.38459 18.4613V5.53819C1.38459 4.39299 2.31628 3.46125 3.46153 3.46125H20.5385C21.6837 3.46125 22.6154 4.39294 22.6154 5.53819V8.53819Z" fill="#414040"/>
<path d="M18.4616 11.3076H17.5385C17.1561 11.3076 16.8462 11.6176 16.8462 11.9999C16.8462 12.3823 17.1562 12.6922 17.5385 12.6922H18.4616C18.8439 12.6922 19.1538 12.3822 19.1538 11.9999C19.1538 11.6176 18.8439 11.3076 18.4616 11.3076Z" fill="#414040"/>
</svg>
